<?xml version="1.0" encoding="utf-8"?>
<!-- Generator: Adobe Illustrator 19.0.0, SVG Export Plug-In . SVG Version: 6.00 Build 0)  -->
<svg version="1.1" xmlns="http://www.w3.org/2000/svg" xmlns:xlink="http://www.w3.org/1999/xlink" x="0px" y="0px"
	 viewBox="0 0 209.8 53.6" style="enable-background:new 0 0 209.8 53.6;" xml:space="preserve">
<style type="text/css">
	.st0{fill:#FFFFFF;}
</style>
<g id="web__design">
	<g>
		<path class="st0" d="M113.8,48.9c0.3,0,0.6-0.2,0.9-0.4c0.3-0.3,0.5-0.6,0.8-1c-0.1-0.6-0.2-1-0.3-1.4c-0.1-0.3-0.1-0.7-0.1-0.9
			s-0.1-0.6-0.1-0.9c0-0.3-0.1-0.8-0.1-1.4c-0.1-0.4,0-0.7,0.1-1c0.1-0.3,0.3-0.5,0.5-0.7c0.2-0.2,0.5-0.4,0.8-0.5
			c0.3-0.1,0.7-0.2,1-0.3c0.3-0.1,0.6-0.1,0.7,0c0.2,0,0.3,0.1,0.4,0.2c0.1,0.1,0.1,0.2,0.2,0.3c0,0.1,0,0.2,0,0.2
			c0,0.2,0,0.4-0.1,0.6c0,0.2-0.1,0.5-0.1,0.9c0,0.4,0.1,0.8,0.1,1.2c0,0.4,0.1,0.9,0.1,1.4s0.1,0.9,0.1,1.3c0,0.4,0.1,0.8,0.2,1.1
			s0.2,0.6,0.3,0.8c0.1,0.2,0.2,0.3,0.4,0.3c0.2,0,0.4-0.1,0.6-0.2s0.4-0.3,0.6-0.6c0.2-0.2,0.3-0.5,0.5-0.8
			c0.1-0.3,0.3-0.6,0.4-0.9c-0.3-0.1-0.5-0.2-0.7-0.3c-0.2-0.1-0.3-0.3-0.4-0.5c-0.1-0.2-0.2-0.4-0.2-0.7s-0.1-0.5-0.1-0.8
			c0-0.3,0-0.5,0-0.7c0-0.2,0.1-0.4,0.1-0.6c0.1-0.4,0.3-0.7,0.5-0.9s0.4-0.5,0.6-0.6s0.4-0.3,0.6-0.3c0.2-0.1,0.4-0.1,0.5-0.1
			c0.3,0,0.5,0.1,0.6,0.3c0.1,0.2,0.2,0.5,0.3,0.8s0.1,0.7,0.1,1.1c0,0.4,0,0.7,0,1c0.2,0.1,0.3,0.1,0.5,0.1c0.2,0,0.3,0,0.4,0
			c0.1,0,0.3-0.1,0.4-0.2c0.1-0.1,0.3-0.1,0.4-0.2c0.3-0.2,0.6-0.4,0.8-0.5c0.2-0.2,0.4-0.3,0.5-0.4c0.1-0.1,0.2-0.2,0.3-0.2
			c0.1,0,0.2-0.1,0.3,0c0.1,0,0.1,0.1,0.2,0.2c0,0.1,0.1,0.2,0,0.3c0,0.1,0,0.2-0.1,0.3c0,0.1-0.1,0.2-0.2,0.3
			c-0.1,0.1-0.2,0.2-0.3,0.3c-0.1,0.1-0.2,0.2-0.2,0.3c-0.1,0.1-0.2,0.2-0.2,0.2c-0.2,0.2-0.5,0.5-0.9,0.7c-0.3,0.3-0.8,0.5-1.4,0.8
			c-0.2,0.1-0.3,0.1-0.5,0.2c-0.2,0-0.3,0.1-0.5,0.1c-0.2,0.5-0.5,1.1-0.8,1.7c-0.3,0.6-0.7,1.2-1.1,1.7c-0.4,0.5-0.9,0.9-1.4,1.3
			c-0.5,0.4-1,0.5-1.6,0.6c-0.3,0-0.5,0-0.7-0.2s-0.4-0.3-0.6-0.5s-0.3-0.5-0.5-0.7s-0.3-0.5-0.4-0.8c-0.3,0.3-0.5,0.6-0.8,0.9
			s-0.6,0.6-0.9,0.8c-0.3,0.2-0.6,0.4-1,0.5c-0.3,0.1-0.7,0.2-1,0.2c-0.4,0-0.8-0.1-1-0.4c-0.3-0.3-0.5-0.6-0.7-1.1
			s-0.3-0.9-0.5-1.3c-0.1-0.5-0.2-0.8-0.3-1.1c-0.1-0.2-0.1-0.5-0.2-0.8c-0.1-0.3-0.1-0.6-0.2-1s-0.1-0.7-0.2-1c0-0.4-0.1-0.7-0.1-1
			c0-0.2-0.1-0.4-0.1-0.6c0-0.2-0.1-0.4-0.1-0.6c0-0.3,0-0.6,0.2-0.8c0.1-0.2,0.3-0.5,0.5-0.6c0.2-0.2,0.4-0.3,0.7-0.4
			c0.3-0.1,0.5-0.2,0.7-0.3c0.4-0.1,0.7-0.1,0.9-0.1s0.4,0.1,0.5,0.2c0.1,0.1,0.2,0.2,0.2,0.3c0,0.1,0,0.2,0,0.3
			c0,0.2,0,0.4-0.1,0.6c0,0.2-0.1,0.5-0.1,0.9c0,0.2,0,0.3,0,0.5s0,0.4,0,0.6c0.1,0.6,0.1,1.2,0.2,1.8s0.1,1.2,0.2,1.7
			c0.1,0.5,0.2,0.9,0.3,1.3C113.4,48.8,113.6,48.9,113.8,48.9z"/>
		<path class="st0" d="M128.6,45.6c0,0.6,0.1,1.2,0.3,1.6c0.2,0.4,0.4,0.8,0.7,1c0.3,0.2,0.5,0.4,0.8,0.5c0.3,0.1,0.6,0.1,0.8,0.1
			c0.3,0,0.6-0.1,0.9-0.2c0.3-0.1,0.6-0.3,0.8-0.5c0.2-0.2,0.5-0.4,0.7-0.6c0.2-0.2,0.4-0.5,0.5-0.7c0.2-0.3,0.3-0.5,0.4-0.8
			c0.1-0.2,0.2-0.4,0.3-0.5c0.1-0.1,0.1-0.3,0.2-0.3c0.1-0.1,0.1-0.1,0.2-0.1s0.2,0,0.2,0.1c0,0.1,0.1,0.2,0.1,0.3
			c0,0.1,0,0.2,0,0.4s0,0.2-0.1,0.3c0,0.2-0.1,0.4-0.2,0.6c-0.1,0.4-0.3,0.8-0.6,1.2c-0.3,0.5-0.6,0.9-1,1.3
			c-0.4,0.4-0.9,0.8-1.4,1.1c-0.6,0.3-1.2,0.5-1.9,0.5c-0.5,0-1.1-0.1-1.7-0.3c-0.6-0.2-1.1-0.5-1.6-0.9c-0.5-0.4-0.9-0.9-1.2-1.5
			s-0.5-1.2-0.5-1.9c0-0.6,0-1.3,0.2-1.9c0.2-0.6,0.4-1.2,0.7-1.8s0.7-1,1.2-1.4c0.5-0.4,1-0.7,1.6-0.9c0.3-0.1,0.7-0.2,1.1-0.2
			c0.5,0,1,0,1.5,0.2s0.9,0.4,1.2,0.7c0.3,0.3,0.6,0.7,0.8,1.1s0.3,1,0.3,1.6c0,0.3,0,0.6-0.1,0.9c-0.1,0.3-0.2,0.6-0.3,0.8
			c-0.2,0.2-0.4,0.4-0.6,0.6c-0.3,0.2-0.6,0.2-1,0.3c-0.4,0-0.7,0-1.1-0.1c-0.4-0.1-0.7-0.1-1-0.2c-0.3-0.1-0.5-0.2-0.7-0.3
			c-0.2-0.1-0.3-0.2-0.3-0.3c0,0,0-0.1,0-0.2c0-0.1,0.1-0.1,0.1-0.2c0-0.1,0.1-0.1,0.1-0.2c0.1,0,0.1-0.1,0.2-0.1c0,0,0.1,0,0.2,0
			c0.1,0,0.2,0,0.4,0c0.1,0,0.3,0,0.4,0s0.3,0,0.5,0c0.3,0,0.5,0,0.6-0.1c0.2-0.1,0.2-0.3,0.2-0.6c0-0.2,0-0.4-0.1-0.7
			c0-0.3-0.1-0.6-0.2-0.9s-0.2-0.6-0.4-0.8c-0.2-0.2-0.4-0.3-0.7-0.3c-0.3,0-0.6,0.1-0.8,0.4c-0.2,0.3-0.4,0.6-0.6,1
			s-0.2,0.8-0.3,1.3C128.6,44.7,128.6,45.1,128.6,45.6z"/>
		<path class="st0" d="M144.7,44.9c0,0.6-0.1,1.3-0.4,1.9c-0.2,0.6-0.5,1.2-1,1.7c-0.4,0.5-0.9,0.9-1.5,1.3s-1.2,0.5-1.9,0.6
			c-0.3,0-0.6,0-0.9-0.1s-0.5-0.2-0.7-0.4c-0.1,0.2-0.2,0.3-0.3,0.4c-0.1,0.1-0.3,0.2-0.4,0.2s-0.3,0.1-0.5,0.1c-0.2,0-0.3,0-0.5,0
			c-0.1,0-0.1,0-0.2,0c-0.1,0-0.1,0-0.2,0c-0.1,0-0.2-0.1-0.3-0.2c-0.2-0.2-0.2-0.4-0.3-0.7c-0.1-1.5-0.2-3-0.3-4.5
			c-0.1-1.5-0.2-2.9-0.2-4.4c-0.1-1.5-0.1-2.9-0.2-4.4c-0.1-1.5-0.1-3-0.2-4.5c0-0.5,0-0.9,0-1.2c0-0.4,0.1-0.7,0.3-0.9
			c0.2-0.3,0.4-0.5,0.7-0.6c0.3-0.2,0.7-0.3,1.3-0.4c0.3-0.1,0.5,0,0.7,0.1c0.2,0.1,0.3,0.2,0.5,0.5c0.1,0.2,0.2,0.5,0.2,0.8
			c0,0.9,0.1,1.7,0,2.4c0,0.8,0,1.5,0,2.2c0,0.7,0,1.4-0.1,2.1c0,0.7,0,1.3,0,2c0,0.3,0,0.5,0,0.6c0,0.1,0,0.2,0,0.2c0,0,0,0,0,0
			c0,0,0,0,0,0c0,0,0,0.1,0,0.2c0,0.1,0,0.3,0,0.6l0,0.6c0,0.4,0,0.8,0,1.1s0,0.7,0,1.1s0,0.9,0,1.3c0,1,0,2.2,0,3.5
			c0,0.2,0.1,0.4,0.2,0.6c0.1,0.2,0.2,0.3,0.3,0.5s0.3,0.2,0.5,0.2c0.2,0,0.3,0,0.5-0.2c0.2-0.1,0.4-0.3,0.5-0.6s0.3-0.5,0.4-0.9
			c0.1-0.3,0.2-0.7,0.2-1.1c0-0.4,0.1-0.8,0-1.2L144.7,44.9z M139.7,40.9c0.1-0.2,0.3-0.4,0.5-0.5c0.2-0.1,0.4-0.2,0.6-0.3
			c0.2-0.1,0.4-0.1,0.7-0.1c0.2,0,0.4,0.1,0.7,0.2c0.6,0.3,1,0.7,1.4,1.2c0.4,0.5,0.7,1,1,1.7c0.2,0,0.3,0,0.5-0.1
			c0.2-0.1,0.4-0.2,0.6-0.3c0.2-0.1,0.4-0.3,0.6-0.4c0.2-0.1,0.3-0.3,0.5-0.3c0.2-0.2,0.4-0.3,0.5-0.4c0.1-0.1,0.2-0.1,0.4-0.1
			c0.1,0,0.1,0.1,0.2,0.2c0,0.1,0.1,0.2,0,0.3c0,0.2-0.1,0.5-0.2,0.7c-0.1,0.2-0.3,0.4-0.5,0.6c-0.3,0.3-0.7,0.7-1.1,1
			s-0.9,0.6-1.4,0.8l0,0.1l-3.6,0.7l0-0.5l0-0.2c0,0,0,0-0.1-0.1c0,0-0.1-0.1-0.1-0.1c-0.2-0.1-0.3-0.3-0.5-0.4
			c-0.2-0.2-0.4-0.3-0.6-0.5c-0.2-0.2-0.3-0.3-0.5-0.5c-0.1-0.2-0.2-0.3-0.2-0.5c0-0.5,0.1-0.8,0.2-1.1
			C139.4,41.4,139.6,41.1,139.7,40.9z"/>
		<path class="st0" d="M155.2,28.8c0-0.5,0.1-0.8,0.3-1.1c0.2-0.3,0.5-0.4,1-0.3c0.5,0.1,1,0.2,1.3,0.3c0.3,0.1,0.6,0.3,0.7,0.6
			s0.3,0.5,0.3,0.9c0.1,0.3,0.1,0.8,0.1,1.2c0,0.3,0,0.6,0,0.9c0,0.3,0,0.6,0,0.9c0,1.5,0.1,2.9,0.1,4.3c0.1,1.4,0.1,2.8,0.1,4.1
			c0,0.9,0,1.7,0.1,2.5c0,0.7,0.1,1.4,0.1,2.1c0,0.6,0.1,1.1,0.3,1.4s0.4,0.5,0.6,0.4c0.2,0,0.4-0.1,0.6-0.2
			c0.2-0.2,0.4-0.3,0.6-0.6c0.2-0.2,0.4-0.5,0.5-0.7c0.2-0.3,0.3-0.5,0.4-0.7c0.1-0.2,0.2-0.4,0.3-0.6C162.9,44,163,44,163,44
			c0.1,0,0.1,0,0.2,0.1s0.1,0.2,0.1,0.3c0,0.1,0,0.2,0,0.4c0,0.1,0,0.2,0,0.2c-0.1,0.2-0.1,0.5-0.3,0.8c-0.1,0.3-0.3,0.6-0.5,1
			c-0.2,0.3-0.4,0.7-0.7,1c-0.3,0.3-0.5,0.6-0.9,0.9s-0.7,0.5-1,0.7c-0.4,0.2-0.8,0.3-1.2,0.3c-0.4,0-0.7-0.1-0.9-0.2
			c-0.3-0.2-0.5-0.4-0.6-0.6c-0.3,0.3-0.5,0.6-0.9,0.8c-0.3,0.2-0.7,0.3-1.2,0.3c-0.4,0-0.8,0-1.1-0.1c-0.4-0.1-0.8-0.2-1.2-0.4
			s-0.8-0.5-1.1-0.8s-0.6-0.8-0.8-1.3c-0.2-0.5-0.3-1.1-0.4-1.8c0-0.7,0.1-1.4,0.3-2.2c0.2-0.7,0.5-1.4,0.9-1.9
			c0.4-0.6,0.9-1,1.5-1.4c0.6-0.4,1.3-0.6,2-0.6c0.2,0,0.5,0,0.8,0c-0.1-1-0.2-2.2-0.3-3.6c-0.1-1.4-0.3-2.9-0.4-4.8
			c0-0.3,0-0.7-0.1-1C155.3,29.5,155.2,29.2,155.2,28.8z M156.6,47.2c-0.1-0.5-0.2-1-0.2-1.5c-0.1-0.5-0.1-1-0.1-1.5
			c0-0.5-0.1-1-0.1-1.6s0-1.1-0.1-1.6c-0.1-0.2-0.2-0.4-0.3-0.5c-0.1-0.1-0.3-0.2-0.4-0.2c-0.3,0-0.6,0.1-0.8,0.4s-0.4,0.6-0.6,1
			c-0.1,0.4-0.2,0.8-0.3,1.3c-0.1,0.5-0.1,1-0.1,1.4c0,0.7,0.1,1.2,0.3,1.7c0.2,0.4,0.3,0.8,0.6,1.1c0.2,0.3,0.4,0.4,0.7,0.5
			c0.2,0.1,0.5,0.1,0.7,0.1c0.1,0,0.3-0.1,0.4-0.2S156.5,47.5,156.6,47.2z"/>
		<path class="st0" d="M165.2,44.1c0,0.6,0.1,1.2,0.3,1.6c0.2,0.4,0.4,0.8,0.7,1s0.5,0.4,0.8,0.5c0.3,0.1,0.6,0.1,0.8,0.1
			c0.3,0,0.6-0.1,0.9-0.2c0.3-0.1,0.6-0.3,0.8-0.5s0.5-0.4,0.7-0.6c0.2-0.2,0.4-0.5,0.5-0.7c0.2-0.3,0.3-0.5,0.4-0.8
			c0.1-0.2,0.2-0.4,0.3-0.5c0.1-0.1,0.1-0.3,0.2-0.3c0.1-0.1,0.1-0.1,0.2-0.1c0.1,0,0.2,0,0.2,0.1c0,0.1,0.1,0.2,0.1,0.3
			c0,0.1,0,0.2,0,0.4c0,0.1,0,0.2-0.1,0.3c0,0.2-0.1,0.4-0.2,0.6c-0.1,0.4-0.3,0.8-0.6,1.2c-0.3,0.5-0.6,0.9-1,1.3
			c-0.4,0.4-0.9,0.8-1.4,1.1c-0.6,0.3-1.2,0.5-1.9,0.5c-0.5,0-1.1-0.1-1.7-0.3c-0.6-0.2-1.1-0.5-1.6-0.9c-0.5-0.4-0.9-0.9-1.2-1.5
			c-0.3-0.6-0.5-1.2-0.5-1.9c0-0.6,0-1.3,0.2-1.9c0.2-0.6,0.4-1.2,0.7-1.8c0.3-0.5,0.7-1,1.2-1.4s1-0.7,1.6-0.9
			c0.3-0.1,0.7-0.2,1.1-0.2c0.5,0,1,0,1.5,0.2c0.5,0.1,0.9,0.4,1.2,0.7s0.6,0.7,0.8,1.1c0.2,0.5,0.3,1,0.3,1.6c0,0.3,0,0.6-0.1,0.9
			s-0.2,0.6-0.3,0.8c-0.2,0.2-0.4,0.4-0.6,0.6s-0.6,0.2-1,0.3c-0.4,0-0.7,0-1.1-0.1c-0.4-0.1-0.7-0.1-1-0.2
			c-0.3-0.1-0.5-0.2-0.7-0.3c-0.2-0.1-0.3-0.2-0.3-0.3c0,0,0-0.1,0-0.2c0-0.1,0.1-0.1,0.1-0.2c0-0.1,0.1-0.1,0.1-0.2
			c0.1,0,0.1-0.1,0.2-0.1c0.1,0,0.1,0,0.2,0c0.1,0,0.2,0,0.4,0c0.1,0,0.3,0,0.4,0s0.3,0,0.5,0c0.3,0,0.5,0,0.6-0.1
			c0.2-0.1,0.2-0.3,0.2-0.6c0-0.2,0-0.4-0.1-0.7c0-0.3-0.1-0.6-0.2-0.9c-0.1-0.3-0.2-0.6-0.4-0.8c-0.2-0.2-0.4-0.3-0.7-0.3
			c-0.3,0-0.6,0.1-0.8,0.4s-0.4,0.6-0.6,1c-0.1,0.4-0.2,0.8-0.3,1.3S165.2,43.6,165.2,44.1z"/>
		<path class="st0" d="M172.1,39.4c0-0.2,0-0.3,0-0.4c0-0.1,0-0.2,0.1-0.4c0.1-0.1,0.2-0.2,0.4-0.3c0.2-0.1,0.5-0.2,0.9-0.3
			c0.4-0.1,0.7-0.2,1-0.2c0.3,0,0.5,0,0.6,0.1c0.2,0.1,0.3,0.2,0.4,0.4c0.1,0.2,0.2,0.4,0.3,0.7c0.1,0.1,0.1,0.3,0.1,0.4
			c0,0.1,0.1,0.3,0.1,0.5c0.1,0.2,0.1,0.4,0.3,0.7s0.3,0.6,0.5,1c0.2,0.3,0.3,0.6,0.5,0.9c0.2,0.3,0.3,0.6,0.5,0.9
			c0.1,0.3,0.3,0.6,0.4,0.8c0.1,0.3,0.2,0.5,0.2,0.8c0,0.3,0,0.6-0.1,0.9c-0.1,0.3-0.2,0.5-0.3,0.8c0.4-0.3,0.7-0.6,0.9-1
			c0.3-0.3,0.5-0.6,0.6-0.9c0.2-0.3,0.3-0.5,0.4-0.8c0.1-0.2,0.2-0.4,0.2-0.5c0.1-0.2,0.2-0.2,0.3-0.2c0.1,0,0.2,0,0.2,0.1
			c0,0.1,0.1,0.3,0.1,0.5s0,0.4,0,0.6c0,0.2-0.1,0.5-0.2,0.7c-0.1,0.2-0.2,0.5-0.3,0.7c-0.2,0.4-0.5,0.8-0.9,1.1
			c-0.4,0.4-0.8,0.7-1.4,1c-0.5,0.3-1.2,0.6-1.9,0.8c-0.7,0.2-1.5,0.3-2.4,0.4c-0.9,0-1.6-0.1-2.1-0.5s-0.8-1-0.9-1.7
			c0-0.1,0-0.3,0-0.5c0-0.2,0-0.4,0-0.6c0-0.2,0.1-0.3,0.1-0.5c0.1-0.1,0.2-0.2,0.3-0.2c0.1,0,0.4,0,0.6,0c0.3,0,0.5,0,0.8,0.1
			c0.3,0.1,0.5,0.1,0.7,0.2c0.2,0.1,0.3,0.2,0.3,0.4s0,0.3,0,0.5c0,0.2-0.1,0.3-0.1,0.5c0,0.1-0.1,0.3-0.1,0.4c0,0.1,0,0.2,0,0.3
			c0,0.1,0,0.2,0.1,0.2c0.1,0.1,0.1,0.1,0.3,0.1c0.4,0,0.7-0.1,0.9-0.4c0.2-0.2,0.4-0.6,0.3-1c0-0.3-0.1-0.6-0.2-1.1s-0.4-1-0.6-1.6
			c-0.2-0.3-0.3-0.7-0.5-1c-0.2-0.3-0.3-0.6-0.4-0.8c0,0.1,0,0.3-0.1,0.5c0,0.2-0.1,0.5-0.2,0.8s-0.2,0.7-0.3,1.2s-0.3,1-0.5,1.6
			c-0.1,0.2-0.1,0.3-0.2,0.4c-0.1,0.1-0.2,0.1-0.3,0.1c-0.1,0-0.2,0-0.3-0.1c-0.1-0.1-0.2-0.2-0.3-0.3c-0.1-0.1-0.1-0.3-0.1-0.5
			c0-0.2,0-0.4,0.1-0.6c0.2-0.5,0.4-1.1,0.6-1.5c0.1-0.5,0.2-0.9,0.3-1.3c0.1-0.4,0.1-0.8,0.2-1.1s0-0.6,0-0.9c0-0.1,0-0.2,0-0.3
			c0-0.1,0-0.3-0.1-0.5L172.1,39.4z"/>
		<path class="st0" d="M179.8,38.9c0.1-0.1,0.2-0.2,0.3-0.4s0.4-0.2,0.6-0.3c0.2-0.1,0.5-0.2,0.7-0.2c0.3-0.1,0.5-0.1,0.7-0.1
			c0.1,0,0.3,0,0.3,0.1c0.1,0.1,0.2,0.1,0.2,0.3s0.1,0.2,0.1,0.4s0,0.3,0,0.4c0,0.3,0,0.7,0,1.1s0,1,0,1.5c0,0.5,0,1,0,1.6
			c0,0.5,0,1,0.1,1.4c0,0.4,0.1,0.8,0.2,1c0.1,0.3,0.2,0.4,0.4,0.4c0.2,0,0.4-0.1,0.6-0.2c0.2-0.2,0.4-0.3,0.6-0.6
			c0.2-0.2,0.4-0.5,0.5-0.7s0.3-0.5,0.4-0.7c0.1-0.2,0.2-0.4,0.3-0.6c0.1-0.1,0.1-0.2,0.2-0.2c0.1,0,0.2,0,0.2,0.1
			c0,0.1,0.1,0.2,0.1,0.3c0,0.1,0,0.2,0,0.4c0,0.1,0,0.2,0,0.3c0,0.2-0.1,0.5-0.2,0.8c-0.1,0.3-0.3,0.6-0.5,1
			c-0.2,0.3-0.4,0.7-0.7,1s-0.5,0.6-0.9,0.9c-0.3,0.3-0.7,0.5-1,0.7c-0.4,0.2-0.8,0.3-1.2,0.3c-0.3,0-0.6-0.1-0.8-0.3
			c-0.2-0.2-0.4-0.5-0.6-0.8c-0.2-0.3-0.3-0.7-0.4-1.1s-0.2-0.8-0.2-1.1c0-0.2,0-0.3-0.1-0.5s0-0.3,0-0.4c0,0,0-0.1,0-0.3
			c0-0.2,0-0.5-0.1-0.9c0-0.4,0-0.8-0.1-1.2s0-0.9,0-1.3c0-0.4,0-0.8,0-1.2S179.7,39.1,179.8,38.9z M179.9,34.6c0-0.3,0-0.6,0.1-1
			s0.2-0.6,0.4-0.9s0.4-0.5,0.6-0.6c0.2-0.2,0.4-0.3,0.7-0.3c0.3,0,0.5,0,0.7,0.2c0.2,0.1,0.3,0.3,0.4,0.4c0.1,0.2,0.2,0.4,0.2,0.6
			s0.1,0.4,0.1,0.6c0,0.4,0,0.8-0.1,1.1c-0.1,0.3-0.3,0.6-0.4,0.8s-0.4,0.4-0.6,0.5c-0.2,0.1-0.4,0.2-0.6,0.2c-0.3,0-0.5,0-0.7-0.1
			c-0.2-0.1-0.3-0.2-0.5-0.4c-0.1-0.2-0.2-0.4-0.3-0.6S179.9,34.8,179.9,34.6z"/>
		<path class="st0" d="M191.2,38c0.1-0.1,0.2-0.2,0.2-0.2s0.1-0.1,0.2-0.2c0.1-0.1,0.2-0.1,0.4-0.2c0.1-0.1,0.3-0.1,0.4-0.2
			c0.1,0,0.3-0.1,0.4-0.1c0.1,0,0.3-0.1,0.3-0.1c0.2,0,0.4,0,0.6,0s0.3,0.1,0.3,0.2c0.1,0.1,0.1,0.2,0.2,0.3c0,0.1,0,0.3,0,0.4
			c0,0.5,0,1,0.1,1.6c0,0.6,0.1,1.2,0.1,1.9c0,0.7,0,1.4,0,2.1c0,0.7,0,1.4-0.1,2.2c0.3,0,0.6-0.1,0.9-0.3c0.3-0.2,0.5-0.4,0.7-0.6
			c0.2-0.2,0.4-0.5,0.6-0.8s0.3-0.5,0.4-0.7s0.2-0.4,0.3-0.6s0.1-0.2,0.2-0.2c0.1,0,0.2,0,0.2,0.1c0,0.1,0.1,0.2,0.1,0.3
			c0,0.1,0,0.2,0,0.4c0,0.1,0,0.2,0,0.3c0,0.3-0.2,0.6-0.4,1c-0.2,0.4-0.5,0.8-0.8,1.3c-0.3,0.4-0.7,0.8-1.1,1.2s-0.8,0.7-1.3,0.9
			c-0.1,0.7-0.3,1.4-0.5,2.1c-0.2,0.6-0.5,1.2-0.8,1.7c-0.3,0.5-0.7,0.9-1.2,1.2s-1,0.5-1.7,0.5c-0.3,0-0.6,0-1,0s-0.7-0.1-1.1-0.3
			c-0.3-0.2-0.6-0.4-0.9-0.7s-0.4-0.7-0.4-1.3c0-0.2,0-0.4,0.1-0.6s0.2-0.4,0.3-0.6c0.1-0.2,0.3-0.3,0.4-0.5
			c0.2-0.1,0.3-0.2,0.5-0.2c0.2,0,0.4,0.1,0.5,0.2c0.1,0.1,0.2,0.3,0.3,0.5c0.1,0.2,0.1,0.5,0.2,0.7c0,0.3,0.1,0.5,0.2,0.7
			c0.1,0.2,0.2,0.4,0.3,0.5c0.1,0.1,0.3,0.2,0.5,0.2c0.4,0,0.6-0.1,0.8-0.4c0.2-0.2,0.4-0.5,0.5-0.9s0.2-0.9,0.2-1.4
			c0-0.5,0-1.1,0-1.7c-0.2,0.2-0.4,0.3-0.7,0.4s-0.5,0.2-0.8,0.2c-0.3,0-0.6,0-0.9-0.1c-0.4-0.1-0.8-0.2-1.3-0.4
			c-0.4-0.2-0.8-0.5-1.2-0.8s-0.6-0.8-0.9-1.3s-0.4-1.2-0.4-1.9c0-0.4,0-0.8,0.1-1.2c0.1-0.6,0.3-1.2,0.5-1.8c0.3-0.6,0.6-1.1,1-1.5
			s0.9-0.8,1.4-1.1c0.5-0.3,1.1-0.4,1.8-0.5c0.2,0,0.4,0,0.7,0C190.8,37.8,191,37.9,191.2,38z M190.5,46.5c0.1,0,0.2,0,0.4-0.1
			c0.1-0.1,0.2-0.2,0.3-0.4l-0.2-4.1c0-0.3-0.1-0.7-0.1-1c0-0.3-0.1-0.7-0.1-0.9c-0.1-0.3-0.2-0.5-0.3-0.7c-0.1-0.2-0.3-0.3-0.5-0.3
			c-0.3,0-0.5,0.1-0.7,0.3c-0.2,0.2-0.4,0.4-0.5,0.7c-0.1,0.3-0.3,0.6-0.3,1c-0.1,0.4-0.2,0.7-0.2,1.1s0,0.8,0,1.1
			c0,0.7,0.1,1.2,0.3,1.7c0.2,0.4,0.3,0.8,0.6,1c0.2,0.3,0.4,0.4,0.7,0.5S190.3,46.5,190.5,46.5z"/>
		<path class="st0" d="M196.5,38.7c0-0.4,0.1-0.7,0.2-0.9s0.3-0.5,0.4-0.6s0.3-0.3,0.5-0.4s0.4-0.2,0.6-0.2c0.3-0.1,0.6-0.1,0.8,0
			s0.3,0.2,0.4,0.3s0.2,0.3,0.2,0.4c0,0.2,0,0.3,0.1,0.4c0,0.3,0,0.6,0,1c0,0.3,0,0.6,0,1c0.1-0.3,0.3-0.6,0.5-0.9
			c0.2-0.3,0.4-0.6,0.6-0.8c0.2-0.2,0.5-0.4,0.8-0.6s0.6-0.2,0.9-0.2c0.4,0,0.7,0,1,0.1c0.3,0.1,0.5,0.3,0.7,0.5
			c0.2,0.2,0.4,0.4,0.5,0.7s0.2,0.6,0.3,0.9c0.1,0.3,0.1,0.7,0.2,1c0,0.4,0,0.7,0.1,1.1c0,0.4,0,0.7,0,1.1c0,0.4,0,0.7,0,1
			c0,0.2,0,0.3,0,0.5c0,0.2,0,0.3,0.1,0.5c0,0.2,0.1,0.3,0.2,0.4c0.1,0.1,0.2,0.2,0.3,0.2c0.2,0,0.4-0.1,0.6-0.2
			c0.2-0.1,0.4-0.3,0.5-0.5c0.2-0.2,0.3-0.4,0.5-0.6c0.1-0.2,0.3-0.4,0.4-0.6s0.2-0.4,0.3-0.5s0.1-0.3,0.2-0.3
			c0.1-0.1,0.2-0.2,0.3-0.2c0.1,0,0.1,0,0.2,0.1c0,0.1,0.1,0.2,0.1,0.3c0,0.1,0,0.2-0.1,0.5c-0.1,0.3-0.2,0.6-0.3,1
			c-0.2,0.4-0.3,0.8-0.6,1.2c-0.2,0.4-0.5,0.8-0.8,1.2s-0.7,0.7-1.1,0.9c-0.4,0.3-0.9,0.4-1.4,0.4c-0.4,0-0.8-0.1-1.1-0.3
			s-0.5-0.5-0.7-0.8c-0.2-0.3-0.3-0.7-0.4-1.1c-0.1-0.4-0.1-0.9-0.2-1.3c0-0.2,0-0.4,0-0.5c0-0.2,0-0.4,0-0.5c0-0.2,0-0.5,0-0.9
			c0-0.4,0-0.7,0-1c0-0.3-0.1-0.6-0.2-0.8c-0.1-0.2-0.2-0.4-0.4-0.3c-0.3,0-0.6,0.2-0.8,0.5c-0.2,0.3-0.4,0.7-0.5,1.2
			c-0.1,0.5-0.2,1.1-0.3,1.8c-0.1,0.7-0.1,1.5-0.1,2.3c0,0.5,0,0.8,0,1.1c0,0.3-0.1,0.5-0.3,0.7c-0.1,0.1-0.2,0.2-0.4,0.3
			c-0.2,0.1-0.4,0.1-0.7,0.2c-0.2,0-0.4,0-0.6,0s-0.3,0-0.4-0.1c-0.1-0.1-0.2-0.2-0.3-0.3c-0.1-0.1-0.2-0.3-0.2-0.5
			c-0.1-0.4-0.2-0.8-0.3-1.3s-0.1-1-0.1-1.5c0-0.5,0-0.9,0-1.3s0-0.6,0-0.6c0-0.4,0-0.8,0-1.3c0-0.4,0-0.8,0-1.1c0-0.3,0-0.6,0-0.8
			C196.5,38.9,196.5,38.8,196.5,38.7z"/>
	</g>
</g>
<g id="Tom_McCarten">
	<g>
		<path class="st0" d="M17.4,41.3c-0.2,0-0.4,0-0.6,0c-0.2,0-0.4-0.1-0.6-0.1c-0.2-0.1-0.3-0.2-0.4-0.3c-0.1-0.1-0.2-0.3-0.2-0.4
			c0-0.4,0.1-0.6,0.4-0.7c0.4-0.1,0.8-0.3,1.1-0.6s0.6-0.6,0.8-1c0.2-0.4,0.4-0.8,0.5-1.3c0.1-0.5,0.1-1,0.1-1.5
			c0-0.7-0.1-1.4-0.1-2.2c-0.1-0.7-0.1-1.4-0.2-2.2C18,30,17.9,29,17.8,28c-0.1-1-0.2-2-0.2-3.1c0-1,0-2.1,0-3.1c0-1,0.2-2,0.4-3
			c0.2-0.9,0.5-1.8,0.9-2.6s0.9-1.5,1.6-2.1c-1-0.3-2-0.6-3.2-0.9c-1.1-0.3-2.3-0.6-3.5-0.8c-0.8-0.2-1.6-0.3-2.5-0.4
			c-0.8-0.1-1.7-0.1-2.5-0.1c-0.7,0-1.5,0.2-2.2,0.4c-0.8,0.3-1.4,0.6-2,1.1s-1.1,1-1.5,1.7c-0.4,0.7-0.5,1.5-0.5,2.3
			c0,0.7,0.2,1.3,0.4,1.9s0.6,1.2,1,1.6c0.4,0.5,0.9,0.8,1.4,1.1c0.5,0.3,1.1,0.4,1.8,0.4c0.7,0,1.2-0.2,1.5-0.4
			c0.4-0.3,0.6-0.6,0.8-0.9c0.2-0.3,0.3-0.6,0.4-0.9c0.1-0.3,0.3-0.5,0.5-0.5c0.2,0,0.5,0.1,0.7,0.2c0.2,0.1,0.4,0.3,0.6,0.6
			c0.2,0.2,0.3,0.5,0.4,0.7c0.1,0.3,0.2,0.5,0.2,0.7c0,0.4-0.1,0.9-0.4,1.2s-0.7,0.7-1.1,1c-0.5,0.3-1,0.5-1.5,0.7
			c-0.6,0.2-1.1,0.3-1.7,0.3c-0.9,0-1.8-0.1-2.7-0.5c-0.8-0.4-1.6-0.9-2.2-1.6c-0.6-0.7-1.2-1.4-1.6-2.3c-0.4-0.9-0.6-1.8-0.7-2.8
			c0-1.5,0.2-2.9,0.7-4.1c0.5-1.2,1.2-2.2,2.1-3S4.9,9.5,6,9c1-0.5,2.1-0.8,3.1-1C9.4,8,9.8,7.9,10.2,7.9c0.4,0,0.8-0.1,1.2-0.1
			c0.8,0,1.6,0,2.3,0.1C14.4,7.9,15.2,8,16,8.2c1.2,0.2,2.3,0.5,3.5,0.8c1.2,0.3,2.3,0.7,3.5,1.1c1.2,0.4,2.3,0.8,3.5,1.2
			c1.2,0.4,2.3,0.8,3.5,1.1c1.2,0.3,2.4,0.6,3.6,0.8s2.4,0.3,3.6,0.2c0.6,0,1.2-0.1,1.7-0.2c0.5-0.1,1-0.2,1.4-0.5
			c0.1,0,0.2-0.1,0.4-0.2c0.1-0.1,0.3-0.2,0.5-0.3c0.2-0.1,0.3-0.2,0.5-0.2C41.7,12,41.8,12,42,12c0.2,0,0.4,0.1,0.6,0.2
			c0.2,0.2,0.3,0.4,0.3,0.8c0,0.6-0.2,1.1-0.6,1.5s-0.9,0.8-1.6,1c-0.6,0.3-1.4,0.5-2.1,0.6c-0.8,0.1-1.5,0.2-2.3,0.2
			c-0.8,0-1.6,0-2.4,0c-0.8-0.1-1.6-0.1-2.4-0.2c-0.8-0.1-1.7-0.2-2.5-0.4s-1.8-0.3-2.7-0.4c-0.3,0-0.6-0.1-1-0.2
			c-0.4-0.1-0.7-0.1-1-0.1c-0.6,0-1,0.3-1.2,0.8c-0.2,0.5-0.3,1.2-0.2,2.2c0,0.5,0.1,1.2,0.1,1.8s0.2,1.4,0.3,2.1
			c0.2,1.1,0.3,2.4,0.5,3.6c0.2,1.3,0.3,2.6,0.3,3.9c0,0.4,0,0.8,0,1.2c0,0.4,0,0.8,0,1.2c0,0.6-0.1,1.3-0.2,2s-0.3,1.4-0.5,2.1
			c-0.2,0.7-0.5,1.3-0.8,2c-0.3,0.6-0.7,1.2-1.2,1.7c-0.5,0.5-1,0.9-1.6,1.2C18.9,41.1,18.2,41.3,17.4,41.3z"/>
		<path class="st0" d="M37,27.1c0.4,0.3,0.7,0.6,1.1,1c0.2,0.2,0.3,0.4,0.4,0.6c0.1,0.2,0.2,0.4,0.3,0.6c0.2,0,0.4,0,0.7-0.1
			s0.6-0.2,0.8-0.4c0.3-0.1,0.6-0.3,0.8-0.5c0.3-0.2,0.5-0.3,0.6-0.4c0.3-0.2,0.5-0.4,0.6-0.5s0.3-0.2,0.5-0.1
			c0.1,0,0.2,0.1,0.2,0.2c0,0.1,0.1,0.2,0.1,0.4c0,0.3-0.1,0.6-0.3,0.9c-0.2,0.3-0.4,0.5-0.7,0.8c-0.4,0.4-0.9,0.9-1.5,1.3
			c-0.6,0.4-1.2,0.8-1.9,1c0,0.8-0.2,1.7-0.5,2.5c-0.3,0.8-0.6,1.6-1.1,2.3s-1.1,1.3-1.9,1.7c-0.8,0.4-1.6,0.7-2.6,0.7
			c-0.8,0-1.6-0.1-2.3-0.4c-0.7-0.3-1.4-0.7-2-1.2s-1.1-1.2-1.4-1.9c-0.4-0.8-0.6-1.6-0.6-2.6c0-1,0.1-1.9,0.4-2.9
			c0.3-1,0.7-1.8,1.3-2.6c0.6-0.8,1.2-1.4,2-1.9c0.8-0.5,1.7-0.7,2.7-0.8c0.3,0,0.7,0,1.1,0c0.4,0,0.8,0.1,1.2,0.2
			c0.4,0.1,0.8,0.4,1.1,0.7C36.7,26.1,36.9,26.5,37,27.1z M33.1,36.4c0.3,0,0.6-0.2,0.8-0.5c0.2-0.3,0.4-0.7,0.5-1.1
			s0.2-0.9,0.3-1.4c0-0.5,0.1-1,0-1.4l0-0.1c-0.5-0.2-0.9-0.5-1.3-1c-0.4-0.5-0.6-1.1-0.6-2c0-0.4,0.1-0.7,0.4-1
			c0.3-0.3,0.6-0.5,0.9-0.7c-0.1-0.2-0.2-0.4-0.3-0.5c-0.1-0.1-0.3-0.2-0.5-0.2c-0.2,0-0.4,0.1-0.6,0.2c-0.3,0.2-0.6,0.4-0.8,0.8
			c-0.2,0.4-0.4,0.8-0.6,1.3c-0.1,0.5-0.3,1-0.3,1.6c-0.1,0.6-0.1,1.1-0.1,1.7c0,0.8,0.1,1.5,0.3,2.1c0.2,0.6,0.4,1,0.6,1.4
			c0.2,0.3,0.5,0.6,0.7,0.7S32.9,36.4,33.1,36.4z"/>
		<path class="st0" d="M41,27.6c0-1.2,0.1-2.1,0.5-2.8s1-1,1.9-1.3c0.4-0.1,0.8-0.1,1,0s0.5,0.2,0.6,0.4s0.2,0.4,0.3,0.6
			c0,0.2,0.1,0.4,0.1,0.5c0,0.4,0,0.8,0,1.2c0,0.4,0,0.8,0,1.2c0.2-0.4,0.4-0.8,0.7-1.2s0.6-0.7,0.9-1c0.3-0.3,0.7-0.6,1-0.7
			s0.7-0.3,1.1-0.3c0.9,0,1.5,0.2,2,0.5s0.8,0.9,1.1,1.5c0.1,0.2,0.1,0.4,0.2,0.7c0.1,0.2,0.1,0.5,0.1,0.7c0.2-0.4,0.4-0.9,0.7-1.3
			c0.3-0.4,0.6-0.8,0.9-1.1s0.7-0.6,1.1-0.8c0.4-0.2,0.8-0.3,1.2-0.3c0.6,0,1,0.1,1.4,0.3c0.4,0.2,0.7,0.5,1,0.8s0.5,0.7,0.6,1.2
			s0.3,0.9,0.4,1.5c0.1,0.5,0.1,1.1,0.2,1.6c0,0.6,0,1.1,0,1.6c0,0.5,0,1,0,1.5c0,0.5,0,0.9,0,1.3c0,0.2,0.1,0.4,0.2,0.7
			s0.3,0.3,0.5,0.4c0.3,0,0.5-0.1,0.8-0.3c0.3-0.2,0.5-0.4,0.7-0.6c0.2-0.3,0.4-0.5,0.6-0.8c0.2-0.3,0.4-0.6,0.5-0.8
			s0.3-0.5,0.4-0.7c0.1-0.2,0.2-0.3,0.2-0.4c0.1-0.2,0.3-0.3,0.4-0.3c0.1,0,0.2,0.1,0.2,0.2c0,0.1,0.1,0.3,0.1,0.4
			c0,0.1,0,0.3-0.1,0.6s-0.3,0.8-0.5,1.3c-0.2,0.5-0.5,1-0.8,1.6c-0.3,0.6-0.7,1.1-1.1,1.6s-1,0.9-1.5,1.2c-0.6,0.3-1.2,0.5-1.9,0.5
			c-0.6,0-1.1-0.1-1.4-0.4c-0.4-0.3-0.7-0.6-0.9-1.1s-0.4-1-0.5-1.5s-0.2-1.2-0.2-1.8c0-0.2,0-0.5,0-0.7c0-0.2,0-0.5,0-0.7
			c0-0.3,0-0.7,0-1.2c0-0.5,0-0.9,0-1.4c0-0.4-0.1-0.8-0.2-1.1c-0.1-0.3-0.3-0.5-0.5-0.5c-0.2,0-0.4,0.1-0.7,0.3
			c-0.2,0.2-0.5,0.5-0.7,0.9c-0.2,0.5-0.4,1.1-0.5,1.9c-0.1,0.8-0.2,1.9-0.2,3.1l0,2.5c0,0.6-0.1,1.1-0.4,1.4
			c-0.2,0.2-0.4,0.3-0.6,0.4s-0.6,0.2-1.2,0.2c-0.3,0-0.6,0-0.8,0s-0.4-0.1-0.5-0.2c-0.1-0.1-0.2-0.3-0.3-0.5s-0.1-0.4-0.1-0.7
			c0-0.1,0-0.4-0.1-0.7s0-0.8,0-1.6c0-0.7,0-1.5-0.1-2.3c0-0.9-0.1-1.8-0.3-2.9c-0.1-0.5-0.2-0.9-0.3-1.2c-0.1-0.3-0.3-0.5-0.5-0.5
			c-0.4,0-0.8,0.2-1.1,0.6c-0.3,0.4-0.5,1-0.7,1.7c-0.2,0.7-0.3,1.5-0.4,2.4c-0.1,0.9-0.1,1.9-0.1,2.9c0,0.6,0,1.1,0,1.5
			c0,0.4-0.2,0.8-0.4,1c-0.1,0.1-0.3,0.3-0.6,0.4c-0.3,0.1-0.6,0.2-1,0.2c-0.2,0-0.4,0-0.5,0c-0.2,0-0.3,0-0.5-0.1
			c-0.1-0.1-0.3-0.2-0.4-0.4c-0.1-0.2-0.2-0.4-0.3-0.8c0-0.1-0.1-0.4-0.2-0.9c-0.1-0.5-0.2-1.1-0.2-2c0-0.6-0.1-1.3-0.1-1.9
			c0-0.7,0-1.3,0-2c0-0.7,0-1.2,0-1.5c0-0.3,0-0.5,0-0.6s0-0.2,0-0.3C41,28.1,41,27.9,41,27.6z"/>
		<path class="st0" d="M78.9,8.6c0.2,1,0.5,2,0.8,3.1s0.6,2.1,1,3.2c0.3,1.1,0.6,2.2,1,3.3c0.3,1.1,0.6,2.2,0.8,3.2
			c0.2-0.7,0.4-1.5,0.6-2.4c0.2-0.9,0.5-1.8,0.8-2.8c0.3-0.9,0.6-1.9,0.8-2.8c0.3-0.9,0.6-1.8,0.9-2.5c0.3-0.7,0.5-1.3,0.8-1.8
			c0.2-0.5,0.5-0.8,0.7-0.8c0.6,0,1.1,0.2,1.6,0.6c0.5,0.4,0.7,0.9,0.9,1.6c0,0.8,0,1.5-0.1,2.3c0,0.7-0.1,1.5-0.1,2.2
			c-0.1,0.7-0.1,1.5-0.1,2.2c0,0.7,0,1.5,0,2.2c0,1.4,0.1,2.7,0.3,4c0.2,1.2,0.3,2.4,0.6,3.6c0.2,1.1,0.5,2.2,0.9,3.3
			c0.3,1,0.7,2.1,1.2,3.1c0.3,0.7,0.6,1.3,0.9,1.8c0.3,0.5,0.6,0.9,0.8,1.3c0.1,0.2,0.2,0.4,0.2,0.6s0,0.3,0,0.4
			c-0.1,0.5-0.2,1-0.3,1.5c-0.1,0.5-0.3,1-0.5,1.5c-0.2,0.5-0.5,0.8-0.8,1.2C92,42,91.6,42.1,91,42.1c-0.4,0-0.8-0.2-1.2-0.6
			c-0.4-0.4-0.8-1-1.2-1.8c-0.4-0.8-0.8-1.6-1.1-2.6s-0.7-2.1-1-3.2c-0.3-1.1-0.5-2.3-0.7-3.4c-0.2-1.2-0.3-2.3-0.4-3.4
			c0-0.4-0.1-0.8-0.1-1.2c0-0.4-0.1-0.8-0.1-1.2c0-0.4-0.1-0.8-0.1-1.2c0-0.4-0.1-0.9-0.1-1.3c-0.2,0.6-0.3,1.3-0.4,2.1
			c-0.1,0.8-0.2,1.6-0.3,2.5c-0.1,0.9-0.2,1.8-0.3,2.7c-0.1,0.9-0.2,1.9-0.3,2.8c-0.1,0.9-0.2,1.6-0.3,2.2c-0.1,0.5-0.1,1-0.2,1.4
			s-0.1,0.6-0.2,0.9c-0.1,0.2-0.1,0.5-0.2,0.7c-0.1,0.2-0.1,0.4-0.2,0.6s-0.2,0.4-0.3,0.5c-0.1,0.2-0.2,0.3-0.3,0.4
			c-0.1,0.1-0.3,0.1-0.5,0.2c-0.1,0-0.3,0-0.5-0.1c-0.2-0.1-0.3-0.2-0.5-0.3c-0.2-0.1-0.3-0.4-0.4-0.6s-0.3-0.6-0.4-1
			c-0.1-0.3-0.1-0.5-0.2-0.7c0-0.2-0.1-0.5-0.1-0.7c0-0.3,0-0.6-0.1-0.9c0-0.3,0-0.7-0.1-1.2c-0.2-2.1-0.4-4.1-0.7-6
			s-0.6-3.7-1.1-5.4c0,1.3,0,2.5-0.1,3.7c-0.1,1.3-0.3,2.7-0.5,4.1c-0.2,1.4-0.6,2.9-0.9,4.2c-0.4,1.4-0.8,2.7-1.3,3.9
			c-0.5,1.2-1,2.3-1.6,3.3s-1.2,1.7-1.9,2.3s-1.4,0.9-2.1,0.9c-0.3,0-0.6,0-0.8-0.2c-0.2-0.1-0.4-0.3-0.6-0.5
			c-0.1-0.2-0.3-0.4-0.3-0.7s-0.1-0.5-0.1-0.8c0-0.6,0.1-1.1,0.4-1.5c0.3-0.3,0.8-0.6,1.6-0.8c0.8-0.3,1.6-0.8,2.2-1.5
			s1.2-1.7,1.6-2.7c0.4-1.1,0.8-2.3,1.1-3.6c0.3-1.3,0.5-2.7,0.7-4.1c0.2-1.4,0.2-2.9,0.3-4.3c0-1.4,0-2.8,0-4.2
			c0-0.8-0.1-1.5-0.1-2.3c-0.1-0.7-0.1-1.5-0.3-2.2c-0.1-0.7-0.2-1.5-0.4-2.2c-0.1-0.2-0.2-0.6-0.3-1s-0.3-0.9-0.4-1.3
			c-0.1-0.4-0.3-0.9-0.4-1.2s-0.2-0.7-0.2-0.8c0-0.3,0.1-0.7,0.3-1.1s0.5-0.8,0.9-1.2C74.6,6,75,5.7,75.5,5.4
			C75.9,5.2,76.3,5,76.7,5c0.3,0,0.6,0.1,0.8,0.4c0.2,0.2,0.4,0.6,0.6,0.9c0.2,0.4,0.3,0.8,0.4,1.2C78.7,7.9,78.8,8.3,78.9,8.6z"/>
		<path class="st0" d="M104.2,25.9c0,0.2,0,0.5-0.1,0.8s-0.2,0.5-0.4,0.8c-0.2,0.2-0.4,0.4-0.6,0.6s-0.5,0.2-0.7,0.3
			c-0.3,0-0.5-0.1-0.6-0.3s-0.2-0.4-0.2-0.7s-0.1-0.6-0.1-0.9c0-0.3,0-0.6-0.1-0.9c0-0.3-0.1-0.5-0.3-0.7c-0.1-0.2-0.3-0.3-0.6-0.3
			c-0.4,0-0.8,0.2-1.1,0.5c-0.3,0.3-0.6,0.8-0.8,1.3c-0.2,0.5-0.3,1.1-0.4,1.8c-0.1,0.6-0.1,1.3-0.1,1.9c0,0.9,0.1,1.6,0.3,2.2
			c0.2,0.6,0.5,1,0.8,1.4s0.6,0.6,1,0.7c0.4,0.1,0.7,0.2,1.1,0.2c0.6,0,1.1-0.2,1.6-0.4s0.9-0.6,1.3-0.9c0.4-0.4,0.7-0.8,1-1.2
			c0.3-0.4,0.5-0.8,0.8-1.2c0.2-0.4,0.4-0.7,0.5-0.9s0.2-0.4,0.3-0.4c0.1,0,0.2,0.1,0.3,0.2c0.1,0.1,0.1,0.3,0,0.4
			c-0.1,0.3-0.2,0.7-0.3,1.1c-0.1,0.5-0.3,0.9-0.5,1.4s-0.5,1-0.9,1.5c-0.3,0.5-0.8,1-1.3,1.4c-0.5,0.4-1.1,0.8-1.8,1
			c-0.7,0.3-1.5,0.4-2.4,0.5c-0.7,0-1.4-0.1-2.2-0.4c-0.7-0.3-1.4-0.7-1.9-1.2c-0.6-0.5-1.1-1.2-1.4-1.9c-0.4-0.8-0.6-1.6-0.6-2.6
			c0-1,0.1-1.9,0.4-2.9s0.7-1.8,1.3-2.6c0.6-0.8,1.2-1.4,2-1.9c0.8-0.5,1.7-0.7,2.7-0.8c0.4,0,0.8,0,1.2,0c0.4,0,0.8,0.2,1.2,0.4
			c0.4,0.2,0.7,0.5,1,0.9C104,24.6,104.1,25.1,104.2,25.9z"/>
		<path class="st0" d="M127.2,29.9c0.2-0.3,0.3-0.5,0.4-0.6c0.1-0.2,0.2-0.3,0.3-0.4c0.1-0.1,0.2-0.1,0.3-0.2c0.1,0,0.2,0,0.3,0
			c0.1,0,0.2,0,0.2,0.1c0,0.1,0.1,0.2,0.1,0.4c0,0.2,0,0.3,0,0.5c0,0.2-0.1,0.3-0.1,0.4c-0.3,1.1-0.7,2.2-1.4,3s-1.5,1.6-2.4,2.2
			s-2,1.1-3.1,1.4c-1.1,0.3-2.2,0.5-3.3,0.5c-1.3,0-2.4-0.1-3.5-0.4c-1.1-0.3-2.1-0.8-3.1-1.3c-0.9-0.6-1.8-1.3-2.5-2.1
			c-0.7-0.8-1.4-1.7-1.9-2.6c-0.5-0.9-0.9-1.9-1.2-2.9c-0.3-1-0.5-2-0.5-3c0-1.6,0.1-3.2,0.5-4.7s0.9-2.9,1.6-4.3
			c0.7-1.3,1.6-2.5,2.6-3.7c1-1.1,2.2-2.1,3.5-2.9c1.3-0.8,2.7-1.4,4.2-1.9s3.1-0.7,4.8-0.8c0.4,0,0.9,0,1.4,0c0.5,0,1,0.1,1.5,0.2
			c0.5,0.1,1.1,0.2,1.6,0.3c0.5,0.1,1.1,0.2,1.6,0.4c0.3,0.1,0.7,0.2,1.1,0.4c0.4,0.1,0.8,0.3,1.2,0.6s0.7,0.5,0.9,0.8
			c0.3,0.3,0.4,0.7,0.5,1.1c0,0.3,0,0.6-0.2,0.9c-0.1,0.3-0.3,0.5-0.4,0.7s-0.4,0.4-0.6,0.5c-0.2,0.1-0.5,0.2-0.7,0.2
			c-0.2,0-0.4,0-0.6-0.1c-0.2-0.1-0.3-0.2-0.5-0.3c-0.1-0.1-0.3-0.3-0.4-0.4c-0.1-0.1-0.2-0.3-0.4-0.4c-0.8-0.7-1.7-1.3-2.7-1.6
			c-1-0.4-2-0.5-3-0.5c-1.3,0-2.5,0.3-3.6,0.7c-1.1,0.4-2,1-2.8,1.7c-0.8,0.7-1.5,1.5-2.1,2.5c-0.6,0.9-1.1,1.9-1.5,3
			s-0.6,2.2-0.8,3.3s-0.2,2.2-0.2,3.3c0,1.4,0.2,2.7,0.6,4c0.4,1.3,0.9,2.3,1.5,3.3c0.7,0.9,1.5,1.7,2.5,2.2c1,0.5,2.1,0.8,3.4,0.7
			c1.2,0,2.1-0.2,2.9-0.5c0.8-0.3,1.4-0.6,2-1c0.5-0.4,1-0.8,1.3-1.3C126.7,30.8,127,30.4,127.2,29.9z"/>
		<path class="st0" d="M138.5,23.6c0,0.5,0,1.2,0,2c0,0.8,0,1.6,0,2.4c0,0.5,0,1.1,0,1.6c0,0.5,0.1,1,0.2,1.4
			c0.1,0.4,0.2,0.7,0.3,0.9s0.3,0.4,0.5,0.3c0.4,0,0.7-0.2,1.1-0.6c0.3-0.4,0.7-0.8,1-1.2c0.3-0.4,0.5-0.9,0.7-1.2
			c0.2-0.4,0.3-0.6,0.4-0.7c0.1-0.2,0.3-0.3,0.4-0.3c0.1,0,0.2,0,0.2,0.1c0.1,0.1,0.1,0.2,0.1,0.3c0,0,0,0.2-0.1,0.6
			c-0.1,0.4-0.2,0.8-0.5,1.3c-0.2,0.5-0.5,1.1-0.8,1.7c-0.3,0.6-0.7,1.2-1.2,1.7c-0.5,0.5-1,1-1.6,1.3c-0.6,0.4-1.3,0.5-2,0.6
			c-0.4,0-0.8-0.1-1.1-0.3s-0.6-0.6-0.8-1c-0.3,0.4-0.7,0.8-1.2,1.1s-1,0.4-1.7,0.4c-0.1,0-0.3,0-0.5,0c-0.2,0-0.3,0-0.5,0
			c-0.6-0.1-1.1-0.2-1.7-0.5c-0.6-0.2-1.2-0.6-1.7-1.1c-0.5-0.5-0.9-1.1-1.2-1.8s-0.5-1.6-0.5-2.7c0-0.9,0.1-1.7,0.3-2.6
			s0.6-1.6,1-2.4c0.4-0.7,1-1.3,1.6-1.9s1.4-0.9,2.2-1.1c0.2-0.1,0.4-0.1,0.6-0.1s0.4,0,0.7,0c0.3,0,0.7,0.1,1.1,0.2
			c0.4,0.1,0.8,0.3,1.2,0.6c0.2,0,0.4-0.1,0.6-0.2c0.3-0.1,0.5-0.2,0.8-0.3c0.3-0.1,0.6-0.1,0.8-0.1s0.5,0.1,0.7,0.2
			c0.1,0.1,0.2,0.2,0.2,0.3s0.1,0.3,0.2,0.5S138.5,23.4,138.5,23.6z M133.5,33.5c0.2,0,0.4-0.1,0.6-0.2c0.2-0.1,0.3-0.4,0.5-0.7
			c0-0.2,0-0.4-0.1-0.7c0-0.3,0-0.7-0.1-1.1c0-0.4,0-0.8-0.1-1.3c0-0.5,0-0.9-0.1-1.4l-0.1-2.5c0-0.1,0-0.3-0.1-0.6
			c0-0.2-0.1-0.5-0.2-0.7s-0.2-0.4-0.4-0.6s-0.4-0.2-0.6-0.2c-0.4,0-0.8,0.2-1.1,0.5c-0.3,0.3-0.6,0.8-0.8,1.3
			c-0.2,0.5-0.3,1.1-0.4,1.8c-0.1,0.6-0.1,1.3-0.1,1.9c0,0.9,0.1,1.6,0.3,2.2c0.2,0.6,0.4,1.1,0.7,1.4c0.3,0.4,0.6,0.6,0.9,0.7
			C132.9,33.5,133.2,33.5,133.5,33.5z"/>
		<path class="st0" d="M151.2,28.7c-0.4,0-0.8,0-1.2-0.1s-0.7-0.3-1-0.5c-0.3-0.2-0.5-0.5-0.7-0.8c-0.2-0.3-0.3-0.7-0.3-1.1
			c0-0.2,0-0.3,0-0.5s0.1-0.3,0.1-0.4c0-0.1,0.1-0.2,0.2-0.3c0.1-0.1,0.1-0.2,0.2-0.3c0-0.1,0.1-0.2,0.1-0.3s0.1-0.3,0-0.5
			c0-0.3-0.1-0.7-0.2-1.2c-0.3,0.1-0.5,0.2-0.8,0.5c-0.2,0.3-0.4,0.6-0.6,1c-0.2,0.4-0.3,0.9-0.4,1.3s-0.2,1-0.3,1.5
			c-0.1,0.5-0.2,1-0.2,1.5c0,0.5-0.1,0.9-0.1,1.2c0,0.7,0,1.3,0,2s0,1.3,0,1.9c0,0.5-0.1,0.9-0.3,1.1c-0.2,0.3-0.4,0.5-0.6,0.6
			c-0.3,0.1-0.5,0.2-0.8,0.2c-0.3,0-0.6,0-0.9,0.1c-0.4,0-0.6-0.1-0.9-0.4c-0.2-0.3-0.3-0.6-0.3-0.9c-0.1-0.8-0.1-1.5-0.1-2
			c0-0.6-0.1-1.1-0.1-1.5c0-0.4-0.1-0.8-0.1-1.2c0-0.4,0-0.7-0.1-1.1c-0.1-1.1-0.1-2.2-0.1-3.1c0-0.9,0-1.7,0.1-2.3
			c0.1-0.7,0.2-1.2,0.5-1.5c0.3-0.4,0.6-0.6,0.9-0.8c0.3-0.2,0.6-0.3,0.9-0.4s0.5-0.1,0.6-0.1c0.2,0,0.5,0,0.7,0.2
			c0.2,0.1,0.4,0.3,0.5,0.6c0.1,0.3,0.2,0.5,0.2,0.9c0,0.2,0,0.5,0,0.7c0,0.2,0,0.5,0,0.7c0.2-0.5,0.4-1,0.7-1.5
			c0.3-0.5,0.6-0.9,0.9-1.3c0.4-0.4,0.8-0.7,1.2-0.9c0.4-0.2,0.9-0.3,1.4-0.4c0.2,0,0.4,0,0.7,0c0.3,0,0.6,0.1,0.9,0.2
			c0.2,0.1,0.4,0.2,0.6,0.3c0.2,0.1,0.4,0.3,0.6,0.5c0.2,0.2,0.3,0.5,0.4,0.8c0.1,0.3,0.2,0.7,0.2,1.1c0,0.4-0.1,0.8-0.3,1.3
			c-0.2,0.5-0.4,0.9-0.6,1.4s-0.6,0.8-0.9,1.2c-0.3,0.4-0.7,0.6-1.1,0.8c0,0,0,0,0.1,0c0,0,0,0,0.1,0.1s0.1,0,0.2,0.1
			c0.1,0,0.2,0,0.4,0c0.6,0,1.1-0.1,1.5-0.4c0.4-0.2,0.8-0.5,1.1-0.8c0.3-0.3,0.6-0.6,0.8-1c0.2-0.3,0.5-0.6,0.7-0.9
			c0.2-0.2,0.4-0.4,0.7-0.5c0.2-0.1,0.5-0.2,0.8-0.2c0.3,0,0.4,0.3,0.5,0.9c0,0.2,0,0.4-0.2,0.6c-0.1,0.2-0.3,0.4-0.4,0.7
			c-0.3,0.4-0.6,0.7-1.1,1.1c-0.4,0.4-0.9,0.7-1.4,1s-1.1,0.6-1.6,0.7S151.8,28.7,151.2,28.7z"/>
		<path class="st0" d="M154.7,9.1c0.1-0.7,0.4-1.2,0.8-1.5c0.4-0.3,1-0.6,1.7-0.7c0.4-0.1,0.7-0.1,0.9-0.1s0.4,0,0.6,0.1
			c0.1,0.1,0.3,0.2,0.3,0.3c0.1,0.1,0.2,0.2,0.2,0.3c0.1,0.3,0.2,0.6,0.2,1c0,1.1,0,2.1,0,3.1s0,1.9-0.1,2.8c0,0.9-0.1,1.7-0.1,2.4
			c0,0.8-0.1,1.4-0.1,2.1l1.7-0.1c0.4,0,0.7,0,1,0c0.3,0,0.5,0,0.7-0.1c0.2,0,0.3,0,0.4,0c0.1,0,0.2,0,0.3,0.1s0.1,0.1,0.1,0.2
			s0,0.2,0,0.4c0,0.3,0,0.5,0,0.7c0,0.2-0.1,0.4-0.3,0.5c-0.2,0.1-0.4,0.2-0.8,0.3c-0.3,0.1-0.8,0.1-1.4,0.1l-1.8,0.1
			c0,0.9,0,1.7,0,2.5c0,0.7,0,1.4,0,2.1c0,0.7,0,1.3,0,1.9c0,0.6,0,1.2,0.1,1.8c0,0.8,0.1,1.4,0.4,1.9c0.2,0.4,0.5,0.6,0.9,0.6
			c0.3,0,0.6-0.1,1-0.4c0.3-0.3,0.7-0.6,1-1c0.3-0.4,0.5-0.8,0.7-1.1c0.2-0.3,0.3-0.6,0.4-0.8c0.1-0.2,0.2-0.4,0.3-0.5
			c0.1-0.1,0.2-0.2,0.3-0.2c0.2,0,0.3,0.1,0.3,0.4c0,0.2,0,0.4-0.1,0.6c-0.1,0.3-0.2,0.6-0.4,1c-0.2,0.4-0.4,0.9-0.6,1.3
			c-0.3,0.5-0.5,0.9-0.9,1.4c-0.3,0.5-0.7,0.9-1.1,1.3c-0.4,0.4-0.9,0.7-1.4,0.9c-0.5,0.2-1,0.4-1.6,0.4c-0.5,0-0.9-0.1-1.2-0.3
			s-0.6-0.5-0.8-0.9c-0.2-0.4-0.4-0.8-0.5-1.3c-0.1-0.5-0.2-1-0.3-1.5c-0.1-0.5-0.1-1-0.2-1.6c0-0.5-0.1-1-0.1-1.5
			c-0.1-1.2-0.2-2.3-0.2-3.5s-0.1-2.3-0.1-3.5c-0.5,0-0.9,0-1.2,0s-0.5,0-0.7,0s-0.3-0.1-0.3-0.2c0-0.1-0.1-0.2-0.1-0.3
			c0-0.3,0-0.5,0-0.7c0-0.2,0.1-0.4,0.3-0.5c0.2-0.1,0.4-0.3,0.7-0.3c0.3-0.1,0.7-0.1,1.2-0.2c0-0.6,0-1.1,0-1.4c0-0.3,0-0.6,0-0.9
			c0-0.3,0-0.5,0-0.8s0-0.7,0-1.2c0-0.4,0-0.8,0-1.4s0-1,0-1.6s0-1,0-1.5C154.6,9.6,154.6,9.3,154.7,9.1z"/>
		<path class="st0" d="M167.6,27.9c0,0.9,0.2,1.6,0.4,2.1s0.5,1,0.9,1.4c0.4,0.3,0.7,0.6,1.1,0.7s0.8,0.2,1.1,0.2
			c0.4,0,0.9-0.1,1.3-0.3c0.4-0.2,0.8-0.4,1.1-0.6c0.3-0.3,0.6-0.5,0.9-0.8s0.5-0.6,0.7-0.9c0.2-0.4,0.4-0.7,0.6-1
			c0.1-0.3,0.3-0.5,0.4-0.7c0.1-0.2,0.2-0.3,0.3-0.4s0.2-0.2,0.3-0.2c0.1,0,0.2,0.1,0.3,0.2c0,0.1,0.1,0.2,0.1,0.4
			c0,0.2,0,0.3,0,0.5c0,0.2-0.1,0.3-0.1,0.4c-0.1,0.2-0.2,0.5-0.3,0.8c-0.2,0.5-0.5,1-0.8,1.6c-0.4,0.6-0.8,1.2-1.4,1.7
			c-0.6,0.5-1.2,1-1.9,1.4c-0.7,0.4-1.6,0.6-2.6,0.6c-0.7,0-1.5-0.1-2.2-0.4s-1.5-0.7-2.1-1.2c-0.6-0.5-1.2-1.2-1.6-2
			c-0.4-0.8-0.6-1.6-0.7-2.6c0-0.8,0.1-1.7,0.3-2.5c0.2-0.8,0.5-1.6,1-2.3s1-1.3,1.6-1.9s1.3-0.9,2.1-1.1c0.4-0.1,0.9-0.2,1.4-0.2
			c0.7,0,1.4,0.1,2,0.3c0.6,0.2,1.1,0.5,1.6,0.9c0.4,0.4,0.8,0.9,1.1,1.5c0.3,0.6,0.4,1.3,0.4,2.1c0,0.4,0,0.8-0.1,1.2
			s-0.2,0.8-0.4,1.1c-0.2,0.3-0.5,0.6-0.8,0.8c-0.4,0.2-0.8,0.3-1.3,0.3c-0.5,0-1,0-1.4-0.1c-0.5-0.1-0.9-0.2-1.3-0.3
			s-0.7-0.3-1-0.4c-0.2-0.2-0.4-0.3-0.4-0.4c0-0.1,0-0.1,0-0.2c0-0.1,0.1-0.2,0.1-0.3c0.1-0.1,0.1-0.2,0.2-0.2s0.1-0.1,0.2-0.1
			c0.1,0,0.2,0,0.3,0c0.1,0,0.3,0,0.5,0c0.2,0,0.4,0,0.6,0.1c0.2,0,0.4,0,0.6,0c0.3,0,0.6,0,0.8-0.2c0.2-0.1,0.3-0.4,0.3-0.8
			c0-0.2,0-0.5-0.1-0.9c0-0.4-0.1-0.8-0.2-1.2s-0.3-0.8-0.5-1.1s-0.5-0.4-0.9-0.4c-0.4,0-0.8,0.2-1.1,0.5c-0.3,0.3-0.6,0.8-0.8,1.3
			c-0.2,0.5-0.3,1.1-0.4,1.8C167.6,26.6,167.6,27.2,167.6,27.9z"/>
		<path class="st0" d="M175.4,22.3c0-0.5,0.1-0.9,0.3-1.2c0.2-0.3,0.3-0.6,0.6-0.8c0.2-0.2,0.5-0.4,0.7-0.5c0.3-0.1,0.5-0.2,0.8-0.3
			c0.4-0.1,0.8-0.1,1,0c0.2,0.1,0.4,0.2,0.6,0.4c0.1,0.2,0.2,0.4,0.3,0.6c0,0.2,0.1,0.4,0.1,0.5c0,0.4,0,0.9-0.1,1.3
			c0,0.4,0,0.8-0.1,1.3c0.2-0.4,0.4-0.8,0.7-1.2c0.3-0.4,0.6-0.7,0.9-1c0.3-0.3,0.7-0.6,1-0.7c0.4-0.2,0.7-0.3,1.1-0.3
			c0.5,0,1,0.1,1.4,0.2c0.4,0.1,0.7,0.4,1,0.6c0.3,0.3,0.5,0.6,0.7,1c0.2,0.4,0.3,0.8,0.4,1.2s0.2,0.9,0.2,1.4c0,0.5,0.1,1,0.1,1.5
			c0,0.5,0,1,0,1.4c0,0.5,0,0.9,0,1.3c0,0.2,0,0.4,0,0.7c0,0.2,0,0.5,0.1,0.7c0,0.2,0.1,0.4,0.2,0.5c0.1,0.2,0.2,0.2,0.4,0.2
			c0.3,0,0.5-0.1,0.8-0.3c0.3-0.2,0.5-0.4,0.7-0.6c0.2-0.3,0.4-0.5,0.6-0.8c0.2-0.3,0.4-0.6,0.5-0.8c0.2-0.3,0.3-0.5,0.4-0.7
			c0.1-0.2,0.2-0.3,0.2-0.4c0.1-0.2,0.3-0.3,0.4-0.3c0.1,0,0.2,0.1,0.2,0.2s0.1,0.3,0.1,0.4c0,0.1,0,0.3-0.1,0.6
			c-0.1,0.4-0.3,0.8-0.5,1.3c-0.2,0.5-0.5,1-0.8,1.6c-0.3,0.6-0.7,1.1-1.1,1.6c-0.4,0.5-1,0.9-1.5,1.2s-1.2,0.5-1.9,0.5
			c-0.6,0-1.1-0.1-1.4-0.4c-0.4-0.3-0.7-0.6-0.9-1.1c-0.2-0.4-0.4-1-0.5-1.5c-0.1-0.6-0.2-1.2-0.2-1.8c0-0.2,0-0.5,0-0.7
			c0-0.2,0-0.5,0-0.7c0-0.3,0-0.7,0-1.2c0-0.5,0-0.9,0-1.4c0-0.4-0.1-0.8-0.2-1.1c-0.1-0.3-0.3-0.5-0.5-0.5c-0.4,0-0.7,0.2-1,0.6
			c-0.3,0.4-0.5,0.9-0.7,1.6c-0.2,0.7-0.3,1.5-0.4,2.4c-0.1,0.9-0.1,1.9-0.1,3c0,0.6,0,1.1,0,1.5c0,0.4-0.2,0.7-0.4,1
			c-0.1,0.1-0.3,0.3-0.5,0.4c-0.2,0.1-0.5,0.2-0.9,0.2c-0.3,0-0.6,0-0.7,0c-0.2,0-0.4-0.1-0.5-0.1c-0.1-0.1-0.3-0.2-0.4-0.4
			s-0.2-0.4-0.3-0.7c-0.2-0.5-0.3-1.1-0.4-1.7s-0.1-1.4-0.2-2s0-1.2,0-1.7c0-0.5,0-0.8,0-0.8c0-0.6,0-1.1,0-1.7c0-0.5,0-1,0-1.5
			s0-0.8,0-1.1C175.4,22.5,175.4,22.3,175.4,22.3z"/>
	</g>
</g>
</svg>
